<svg width="145" height="144" viewBox="0 0 145 144" fill="none" xmlns="http://www.w3.org/2000/svg">
<path d="M144.048 64.464H100.166L138.168 42.528L130.632 29.472L92.6256 51.408L114.562 13.416L101.506 5.88L79.5648 43.8624V0H64.4832V43.8672L42.5424 5.88L29.4816 13.416L51.4176 51.3984L13.4208 29.472L5.88 42.528L43.8816 64.464H0V79.5408H43.8768L5.88 101.477L13.416 114.533L51.4224 92.5968L29.4816 130.589L42.5376 138.125L64.4832 100.138V144H79.5648V99.1968L101.909 137.885L114.154 130.819L91.8048 92.1216L130.622 114.528L138.163 101.472L100.166 79.536H144.043V64.464H144.048ZM72.024 92.496C69.3318 92.4963 66.6659 91.9664 64.1785 90.9364C61.6911 89.9064 59.4309 88.3966 57.527 86.4932C55.6231 84.5897 54.1128 82.3299 53.0822 79.8427C52.0517 77.3556 51.5211 74.6898 51.5208 71.9976C51.5205 69.3054 52.0504 66.6395 53.0804 64.1521C54.1104 61.6647 55.6202 59.4045 57.5237 57.5006C59.4271 55.5967 61.6869 54.0864 64.1741 53.0559C66.6612 52.0253 69.327 51.4947 72.0192 51.4944C77.4564 51.4938 82.6711 53.6531 86.5162 57.4973C90.3613 61.3414 92.5218 66.5556 92.5224 71.9928C92.523 77.43 90.3637 82.6447 86.5196 86.4898C82.6754 90.3349 77.4612 92.4954 72.024 92.496Z" fill="#625DF5"/>
</svg>
